<svg xmlns="http://www.w3.org/2000/svg" viewBox="0 0 300 300">
  <defs>
    <filter id="wc" x="-15%" y="-15%" width="130%" height="130%">
      <feTurbulence type="fractalNoise" baseFrequency="0.035" numOctaves="4" seed="21" result="n"/>
      <feDisplacementMap in="SourceGraphic" in2="n" scale="10" xChannelSelector="R" yChannelSelector="G"/>
    </filter>
    <radialGradient id="g" cx="50%" cy="44%" r="52%">
      <stop offset="0%" stop-color="#6a9a9a"/>
      <stop offset="100%" stop-color="#3a6a6a"/>
    </radialGradient>
  </defs>
  <path d="M 152 28 C 208 22 264 65 268 122 C 272 182 246 232 220 256 C 194 278 162 282 138 273 C 104 262 66 240 50 207 C 32 172 40 132 50 104 C 60 70 96 34 152 28 Z"
        fill="url(#g)" filter="url(#wc)"/>
  <path d="M 150,135 C 145,119 145,103 150,93 C 155,103 155,119 150,135 Z" fill="white" opacity="0.92"/>
  <path d="M 150,135 C 140,123 128,111 128,99 C 135,103 143,119 150,135 Z" fill="white" opacity="0.82"/>
  <path d="M 150,135 C 160,123 172,111 172,99 C 165,103 157,119 150,135 Z" fill="white" opacity="0.82"/>
  <path d="M 150,135 C 134,127 116,119 114,107 C 122,109 134,121 150,135 Z" fill="white" opacity="0.65"/>
  <path d="M 150,135 C 166,127 184,119 186,107 C 178,109 166,121 150,135 Z" fill="white" opacity="0.65"/>
  <line x1="150" y1="135" x2="150" y2="145" stroke="white" stroke-width="2.5" stroke-linecap="round" opacity="0.92"/>
  <text x="150" y="200" text-anchor="middle" fill="white"
        font-family="system-ui,-apple-system,sans-serif"
        font-size="14" font-weight="300" letter-spacing="2.2" opacity="0.88">KNOWLEDGE</text>
</svg>
