<svg xmlns="http://www.w3.org/2000/svg" viewBox="0 0 300 300">
  <defs>
    <filter id="wc" x="-15%" y="-15%" width="130%" height="130%">
      <feTurbulence type="fractalNoise" baseFrequency="0.035" numOctaves="4" seed="13" result="n"/>
      <feDisplacementMap in="SourceGraphic" in2="n" scale="10" xChannelSelector="R" yChannelSelector="G"/>
    </filter>
    <radialGradient id="g" cx="50%" cy="46%" r="54%">
      <stop offset="0%" stop-color="#5a5a6a"/>
      <stop offset="100%" stop-color="#2a2a3a"/>
    </radialGradient>
  </defs>
  <path d="M 152 28 C 208 22 264 65 268 122 C 272 182 246 232 220 256 C 194 278 162 282 138 273 C 104 262 66 240 50 207 C 32 172 40 132 50 104 C 60 70 96 34 152 28 Z"
        fill="url(#g)" filter="url(#wc)"/>
  <circle cx="150" cy="94" r="10" fill="white" opacity="0.92"/>
  <path d="M 138,104 C 130,114 118,122 116,130 C 115,142 132,150 150,150 C 168,150 185,142 184,130 C 182,122 170,114 162,104 Z"
        fill="white" opacity="0.92"/>
  <text x="150" y="200" text-anchor="middle" fill="white"
        font-family="system-ui,-apple-system,sans-serif"
        font-size="14" font-weight="300" letter-spacing="2.2" opacity="0.88">MEDITATE</text>
</svg>
